# xmcd CD database file
#
# Track frame offsets:
#	150
#	25463
#	53047
#	67504
#	88286
#	129888
#	154737
#	185228
#	208472
#
# Disc length: 3238 seconds
#
# Revision: 3
# Processed by: cddbd v1.5.2PL0 Copyright (c) Steve Scherf et al.
# Submitted via: CDex 1.51
#
DISCID=7d0ca409
DTITLE=Billy Branch - Mississippi Flashback
DYEAR=1992
DGENRE=Blues
TTITLE0=I'm Ready
TTITLE1=Key To The Highway
TTITLE2=Mississippi Flashback
TTITLE3=How Can You Stand It Baby
TTITLE4=Tin Pan Alley
TTITLE5=Roaches
TTITLE6=My Baby Caught The Train (Whose Been Talking)
TTITLE7=How Can You Stand It Baby
TTITLE8=Are You Serious
EXTD=YEAR: 1992
EXTT0=
EXTT1=
EXTT2=
EXTT3=
EXTT4=
EXTT5=
EXTT6=
EXTT7=
EXTT8=
PLAYORDER=
